<svg xmlns="http://www.w3.org/2000/svg" viewBox="0 0 1600 950" width="100%" height="100%">
  <defs>
    <!-- 背景网格图案 -->
    <pattern id="grid" width="30" height="30" patternUnits="userSpaceOnUse">
      <path d="M 30 0 L 0 0 0 30" fill="none" stroke="#1E293B" stroke-width="0.5" opacity="0.6"/>
      <circle cx="0" cy="0" r="1.5" fill="#3B82F6" opacity="0.4"/>
    </pattern>
    
    <!-- 基础阴影 -->
    <filter id="shadow" x="-10%" y="-10%" width="120%" height="120%">
      <feDropShadow dx="0" dy="8" stdDeviation="16" flood-color="#000000" flood-opacity="0.9"/>
    </filter>
    
    <!-- 霓虹发光滤镜 -->
    <filter id="glow-blue" x="-20%" y="-20%" width="140%" height="140%">
      <feGaussianBlur stdDeviation="6" result="blur"/>
      <feComposite in="SourceGraphic" in2="blur" operator="over"/>
    </filter>
    <filter id="glow-cyan" x="-20%" y="-20%" width="140%" height="140%">
      <feGaussianBlur stdDeviation="5" result="blur"/>
      <feComposite in="SourceGraphic" in2="blur" operator="over"/>
    </filter>
    <filter id="glow-red" x="-20%" y="-20%" width="140%" height="140%">
      <feGaussianBlur stdDeviation="4" result="blur"/>
      <feComposite in="SourceGraphic" in2="blur" operator="over"/>
    </filter>
    <filter id="glow-green" x="-20%" y="-20%" width="140%" height="140%">
      <feGaussianBlur stdDeviation="4" result="blur"/>
      <feComposite in="SourceGraphic" in2="blur" operator="over"/>
    </filter>

    <!-- 标题渐变 -->
    <linearGradient id="titleGrad" x1="0%" y1="0%" x2="100%" y2="0%">
      <stop offset="0%" stop-color="#0F172A"/>
      <stop offset="30%" stop-color="#3B82F6"/>
      <stop offset="70%" stop-color="#06B6D4"/>
      <stop offset="100%" stop-color="#0F172A"/>
    </linearGradient>

    <!-- 玻璃面板渐变 -->
    <linearGradient id="glass-panel" x1="0%" y1="0%" x2="0%" y2="100%">
      <stop offset="0%" stop-color="#1E293B" stop-opacity="0.8"/>
      <stop offset="100%" stop-color="#0F172A" stop-opacity="0.95"/>
    </linearGradient>
  </defs>

  <!-- 背景 -->
  <rect width="1600" height="950" fill="#0A0E17"/>
  <rect width="1600" height="950" fill="url(#grid)"/>

  <!-- 科技感光晕背景 -->
  <circle cx="200" cy="200" r="400" fill="#3B82F6" opacity="0.08" filter="url(#glow-blue)"/>
  <circle cx="1400" cy="800" r="400" fill="#06B6D4" opacity="0.08" filter="url(#glow-cyan)"/>

  <!-- 顶部标题区域 -->
  <rect x="300" y="30" width="1000" height="70" rx="35" fill="url(#titleGrad)" stroke="#3B82F6" stroke-width="2" filter="url(#shadow)"/>
  <text x="800" y="74" font-family="'PingFang SC', 'Microsoft YaHei', system-ui, sans-serif" font-size="32" font-weight="bold" fill="#FFFFFF" text-anchor="middle" letter-spacing="2" filter="url(#glow-blue)">AI Implementation Challenges &amp; Solutions</text>
  
  <rect x="400" y="115" width="800" height="2" fill="#3B82F6" opacity="0.6"/>
  <text x="800" y="140" font-family="'PingFang SC', 'Microsoft YaHei', system-ui, sans-serif" font-size="20" fill="#94A3B8" text-anchor="middle" letter-spacing="1">Full‑Stack Optimization Based on Enterprise AI Infra</text>

  <!-- 图例 -->
  <rect x="1250" y="115" width="300" height="40" rx="20" fill="#1E293B" stroke="#334155" stroke-width="1.5" filter="url(#shadow)"/>
  <circle cx="1275" cy="135" r="8" fill="#EF4444" filter="url(#glow-red)"/>
  <text x="1295" y="141" font-family="system-ui, sans-serif" font-size="16" font-weight="bold" fill="#CBD5E1">Pain Points &amp; Status</text>
  <circle cx="1440" cy="135" r="8" fill="#10B981" filter="url(#glow-green)"/>
  <text x="1460" y="141" font-family="system-ui, sans-serif" font-size="16" font-weight="bold" fill="#CBD5E1">Solutions</text>

  <!-- ================= 列 1：数据与训练 ================= -->
  <g transform="translate(25, 180)">
    <rect x="0" y="0" width="280" height="70" rx="12" fill="#1E293B" stroke="#3B82F6" stroke-width="2" filter="url(#shadow)"/>
    <text x="140" y="42" font-family="'PingFang SC', sans-serif" font-size="24" font-weight="bold" fill="#38BDF8" text-anchor="middle" filter="url(#glow-cyan)">1. Data &amp; Training</text>
    
    <rect x="0" y="80" width="280" height="320" rx="12" fill="url(#glass-panel)" stroke="#EF4444" stroke-width="1.5" filter="url(#shadow)"/>
    <rect x="0" y="80" width="280" height="50" rx="12" fill="#7F1D1D"/>
    <rect x="0" y="120" width="280" height="10" fill="#7F1D1D"/>
    <text x="140" y="112" font-family="system-ui, sans-serif" font-size="20" font-weight="bold" fill="#F87171" text-anchor="middle" filter="url(#glow-red)">Pain Points &amp; Status</text>
    
    <circle cx="20" cy="170" r="6" fill="#EF4444" filter="url(#glow-red)"/>
    <text x="40" y="177" font-family="'PingFang SC', sans-serif" font-size="20" font-weight="bold" fill="#FFFFFF">Hard to Acquire Data</text>
    <text x="40" y="210" font-family="system-ui, sans-serif" font-size="18" fill="#E2E8F0">High‑cost high‑quality SFT data</text>
    
    <circle cx="20" cy="270" r="6" fill="#EF4444" filter="url(#glow-red)"/>
    <text x="40" y="277" font-family="'PingFang SC', sans-serif" font-size="20" font-weight="bold" fill="#FFFFFF">High Training Cost</text>
    <text x="40" y="310" font-family="system-ui, sans-serif" font-size="18" fill="#E2E8F0">Large GPU cluster required for full training</text>

    <rect x="0" y="410" width="280" height="320" rx="12" fill="url(#glass-panel)" stroke="#10B981" stroke-width="1.5" filter="url(#shadow)"/>
    <rect x="0" y="410" width="280" height="50" rx="12" fill="#064E3B"/>
    <rect x="0" y="450" width="280" height="10" fill="#064E3B"/>
    <text x="140" y="442" font-family="system-ui, sans-serif" font-size="20" font-weight="bold" fill="#4ADE80" text-anchor="middle" filter="url(#glow-green)">Solutions</text>
    
    <circle cx="20" cy="500" r="6" fill="#10B981"/>
    <text x="40" y="507" font-family="'PingFang SC', sans-serif" font-size="20" font-weight="bold" fill="#FFFFFF">API Transparent Proxy</text>
    <text x="40" y="540" font-family="system-ui, sans-serif" font-size="18" fill="#E2E8F0">Automatically collect training data</text>
    
    <circle cx="20" cy="600" r="6" fill="#10B981"/>
    <text x="40" y="607" font-family="'PingFang SC', sans-serif" font-size="20" font-weight="bold" fill="#FFFFFF">Knowledge Distillation + LoRA</text>
    <text x="40" y="640" font-family="system-ui, sans-serif" font-size="18" fill="#E2E8F0">Drastically reduce training cost</text>
  </g>

  <!-- 箭头 1 -->
  <g transform="translate(310, 550)">
    <path d="M 0 0 L 25 0" stroke="#3B82F6" stroke-width="4" stroke-dasharray="8 6" filter="url(#glow-blue)"/>
    <polygon points="25,-8 35,0 25,8" fill="#06B6D4" filter="url(#glow-cyan)"/>
  </g>

  <!-- ================= 列 2：模型压缩 ================= -->
  <g transform="translate(335, 180)">
    <rect x="0" y="0" width="280" height="70" rx="12" fill="#1E293B" stroke="#3B82F6" stroke-width="2" filter="url(#shadow)"/>
    <text x="140" y="42" font-family="'PingFang SC', sans-serif" font-size="24" font-weight="bold" fill="#38BDF8" text-anchor="middle" filter="url(#glow-cyan)">2. Model Compression</text>
    
    <rect x="0" y="80" width="280" height="320" rx="12" fill="url(#glass-panel)" stroke="#EF4444" stroke-width="1.5" filter="url(#shadow)"/>
    <rect x="0" y="80" width="280" height="50" rx="12" fill="#7F1D1D"/>
    <rect x="0" y="120" width="280" height="10" fill="#7F1D1D"/>
    <text x="140" y="112" font-family="system-ui, sans-serif" font-size="20" font-weight="bold" fill="#F87171" text-anchor="middle" filter="url(#glow-red)">Pain Points &amp; Status</text>
    
    <circle cx="20" cy="170" r="6" fill="#EF4444" filter="url(#glow-red)"/>
    <text x="40" y="177" font-family="'PingFang SC', sans-serif" font-size="20" font-weight="bold" fill="#FFFFFF">High Inference Cost</text>
    <text x="40" y="210" font-family="system-ui, sans-serif" font-size="18" fill="#E2E8F0">
      <tspan font-weight="bold" fill="#38BDF8">70B+</tspan> models need multi‑GPU cluster
    </text>
    <text x="40" y="235" font-family="system-ui, sans-serif" font-size="18" fill="#E2E8F0">SMEs cannot afford</text>
    
    <circle cx="20" cy="275" r="6" fill="#EF4444" filter="url(#glow-red)"/>
    <text x="40" y="282" font-family="'PingFang SC', sans-serif" font-size="20" font-weight="bold" fill="#FFFFFF">High Deployment Barrier</text>
    <text x="40" y="315" font-family="system-ui, sans-serif" font-size="18" fill="#E2E8F0">Model size ~ hundreds of GB</text>
    <text x="40" y="340" font-family="system-ui, sans-serif" font-size="18" fill="#E2E8F0">High GPU requirements</text>

    <rect x="0" y="410" width="280" height="320" rx="12" fill="url(#glass-panel)" stroke="#10B981" stroke-width="1.5" filter="url(#shadow)"/>
    <rect x="0" y="410" width="280" height="50" rx="12" fill="#064E3B"/>
    <rect x="0" y="450" width="280" height="10" fill="#064E3B"/>
    <text x="140" y="442" font-family="system-ui, sans-serif" font-size="20" font-weight="bold" fill="#4ADE80" text-anchor="middle" filter="url(#glow-green)">Solutions</text>
    
    <circle cx="20" cy="500" r="6" fill="#10B981"/>
    <text x="40" y="507" font-family="'PingFang SC', sans-serif" font-size="20" font-weight="bold" fill="#FFFFFF">Knowledge Distillation</text>
    <text x="40" y="540" font-family="system-ui, sans-serif" font-size="18" fill="#E2E8F0">Transfer to <tspan font-weight="bold" fill="#38BDF8">0.5B–7B</tspan> models</text>
    
    <circle cx="20" cy="600" r="6" fill="#10B981"/>
    <text x="40" y="607" font-family="'PingFang SC', sans-serif" font-size="20" font-weight="bold" fill="#FFFFFF">INT4 / AWQ / GPTQ Quantization</text>
    <text x="40" y="640" font-family="system-ui, sans-serif" font-size="18" fill="#E2E8F0">Single‑GPU deployment</text>
    <text x="40" y="665" font-family="system-ui, sans-serif" font-size="18" fill="#E2E8F0">Inference cost <tspan font-weight="bold" fill="#38BDF8">↓80%+</tspan></text>
  </g>

  <!-- 箭头 2 -->
  <g transform="translate(620, 550)">
    <path d="M 0 0 L 25 0" stroke="#3B82F6" stroke-width="4" stroke-dasharray="8 6" filter="url(#glow-blue)"/>
    <polygon points="25,-8 35,0 25,8" fill="#06B6D4" filter="url(#glow-cyan)"/>
  </g>

  <!-- ================= 列 3：推理与部署 ================= -->
  <g transform="translate(645, 180)">
    <rect x="0" y="0" width="280" height="70" rx="12" fill="#1E293B" stroke="#3B82F6" stroke-width="2" filter="url(#shadow)"/>
    <text x="140" y="42" font-family="'PingFang SC', sans-serif" font-size="24" font-weight="bold" fill="#38BDF8" text-anchor="middle" filter="url(#glow-cyan)">3. Inference &amp; Deployment</text>
    
    <rect x="0" y="80" width="280" height="320" rx="12" fill="url(#glass-panel)" stroke="#EF4444" stroke-width="1.5" filter="url(#shadow)"/>
    <rect x="0" y="80" width="280" height="50" rx="12" fill="#7F1D1D"/>
    <rect x="0" y="120" width="280" height="10" fill="#7F1D1D"/>
    <text x="140" y="112" font-family="system-ui, sans-serif" font-size="20" font-weight="bold" fill="#F87171" text-anchor="middle" filter="url(#glow-red)">Pain Points &amp; Status</text>
    
    <circle cx="20" cy="170" r="6" fill="#EF4444" filter="url(#glow-red)"/>
    <text x="40" y="177" font-family="'PingFang SC', sans-serif" font-size="20" font-weight="bold" fill="#FFFFFF">Slow Generation</text>
    <text x="40" y="210" font-family="system-ui, sans-serif" font-size="18" fill="#E2E8F0">Large models: <tspan font-weight="bold" fill="#F87171">20–50 Tokens/s</tspan></text>
    <text x="40" y="235" font-family="system-ui, sans-serif" font-size="18" fill="#E2E8F0">Agent not real‑time responsive</text>
    
    <circle cx="20" cy="275" r="6" fill="#EF4444" filter="url(#glow-red)"/>
    <text x="40" y="282" font-family="'PingFang SC', sans-serif" font-size="20" font-weight="bold" fill="#FFFFFF">Private Deployment Hard</text>
    <text x="40" y="315" font-family="system-ui, sans-serif" font-size="18" fill="#E2E8F0">Data cannot leave enterprise intranet</text>

    <rect x="0" y="410" width="280" height="320" rx="12" fill="url(#glass-panel)" stroke="#10B981" stroke-width="1.5" filter="url(#shadow)"/>
    <rect x="0" y="410" width="280" height="50" rx="12" fill="#064E3B"/>
    <rect x="0" y="450" width="280" height="10" fill="#064E3B"/>
    <text x="140" y="442" font-family="system-ui, sans-serif" font-size="20" font-weight="bold" fill="#4ADE80" text-anchor="middle" filter="url(#glow-green)">Solutions</text>
    
    <circle cx="20" cy="500" r="6" fill="#10B981"/>
    <text x="40" y="507" font-family="'PingFang SC', sans-serif" font-size="20" font-weight="bold" fill="#FFFFFF">Small Model + vLLM + KV Cache</text>
    <text x="40" y="540" font-family="system-ui, sans-serif" font-size="18" fill="#E2E8F0">Throughput <tspan font-weight="bold" fill="#38BDF8">150–500 Tokens/s</tspan></text>
    
    <circle cx="20" cy="600" r="6" fill="#10B981"/>
    <text x="40" y="607" font-family="'PingFang SC', sans-serif" font-size="20" font-weight="bold" fill="#FFFFFF">Local &amp; Offline Deployment</text>
    <text x="40" y="640" font-family="system-ui, sans-serif" font-size="18" fill="#E2E8F0">Meet enterprise data privacy</text>
  </g>

  <!-- 箭头 3 -->
  <g transform="translate(930, 550)">
    <path d="M 0 0 L 25 0" stroke="#3B82F6" stroke-width="4" stroke-dasharray="8 6" filter="url(#glow-blue)"/>
    <polygon points="25,-8 35,0 25,8" fill="#06B6D4" filter="url(#glow-cyan)"/>
  </g>

  <!-- ================= 列 4：领域与智能体 ================= -->
  <g transform="translate(955, 180)">
    <rect x="0" y="0" width="280" height="70" rx="12" fill="#1E293B" stroke="#3B82F6" stroke-width="2" filter="url(#shadow)"/>
    <text x="140" y="42" font-family="'PingFang SC', sans-serif" font-size="24" font-weight="bold" fill="#38BDF8" text-anchor="middle" filter="url(#glow-cyan)">4. Domain &amp; Agent</text>
    
    <rect x="0" y="80" width="280" height="320" rx="12" fill="url(#glass-panel)" stroke="#EF4444" stroke-width="1.5" filter="url(#shadow)"/>
    <rect x="0" y="80" width="280" height="50" rx="12" fill="#7F1D1D"/>
    <rect x="0" y="120" width="280" height="10" fill="#7F1D1D"/>
    <text x="140" y="112" font-family="system-ui, sans-serif" font-size="20" font-weight="bold" fill="#F87171" text-anchor="middle" filter="url(#glow-red)">Pain Points &amp; Status</text>
    
    <circle cx="20" cy="170" r="6" fill="#EF4444" filter="url(#glow-red)"/>
    <text x="40" y="177" font-family="'PingFang SC', sans-serif" font-size="20" font-weight="bold" fill="#FFFFFF">Missing Domain Knowledge</text>
    <text x="40" y="210" font-family="system-ui, sans-serif" font-size="18" fill="#E2E8F0">Generic models don't understand enterprise knowledge</text>
    
    <circle cx="20" cy="270" r="6" fill="#EF4444" filter="url(#glow-red)"/>
    <text x="40" y="277" font-family="'PingFang SC', sans-serif" font-size="20" font-weight="bold" fill="#FFFFFF">Unstable Agent</text>
    <text x="40" y="310" font-family="system-ui, sans-serif" font-size="18" fill="#E2E8F0">Tool Calling often fails</text>

    <rect x="0" y="410" width="280" height="320" rx="12" fill="url(#glass-panel)" stroke="#10B981" stroke-width="1.5" filter="url(#shadow)"/>
    <rect x="0" y="410" width="280" height="50" rx="12" fill="#064E3B"/>
    <rect x="0" y="450" width="280" height="10" fill="#064E3B"/>
    <text x="140" y="442" font-family="system-ui, sans-serif" font-size="20" font-weight="bold" fill="#4ADE80" text-anchor="middle" filter="url(#glow-green)">Solutions</text>
    
    <circle cx="20" cy="500" r="6" fill="#10B981"/>
    <text x="40" y="507" font-family="'PingFang SC', sans-serif" font-size="20" font-weight="bold" fill="#FFFFFF">RAG + Domain Fine‑tuning</text>
    <text x="40" y="540" font-family="system-ui, sans-serif" font-size="18" fill="#E2E8F0">Build enterprise domain expert model</text>
    
    <circle cx="20" cy="600" r="6" fill="#10B981"/>
    <text x="40" y="607" font-family="'PingFang SC', sans-serif" font-size="20" font-weight="bold" fill="#FFFFFF">ReAct + Workflow + MCP</text>
    <text x="40" y="640" font-family="system-ui, sans-serif" font-size="18" fill="#E2E8F0">Greatly improve Tool Calling success</text>
  </g>

  <!-- 箭头 4 -->
  <g transform="translate(1240, 550)">
    <path d="M 0 0 L 25 0" stroke="#3B82F6" stroke-width="4" stroke-dasharray="8 6" filter="url(#glow-blue)"/>
    <polygon points="25,-8 35,0 25,8" fill="#06B6D4" filter="url(#glow-cyan)"/>
  </g>

  <!-- ================= 列 5：工程与全链路 ================= -->
  <g transform="translate(1265, 180)">
    <rect x="0" y="0" width="280" height="70" rx="12" fill="#1E293B" stroke="#3B82F6" stroke-width="2" filter="url(#shadow)"/>
    <text x="140" y="42" font-family="'PingFang SC', sans-serif" font-size="24" font-weight="bold" fill="#38BDF8" text-anchor="middle" filter="url(#glow-cyan)">5. Engineering &amp; Full Stack</text>
    
    <rect x="0" y="80" width="280" height="320" rx="12" fill="url(#glass-panel)" stroke="#EF4444" stroke-width="1.5" filter="url(#shadow)"/>
    <rect x="0" y="80" width="280" height="50" rx="12" fill="#7F1D1D"/>
    <rect x="0" y="120" width="280" height="10" fill="#7F1D1D"/>
    <text x="140" y="112" font-family="system-ui, sans-serif" font-size="20" font-weight="bold" fill="#F87171" text-anchor="middle" filter="url(#glow-red)">Pain Points &amp; Status</text>
    
    <circle cx="20" cy="170" r="6" fill="#EF4444" filter="url(#glow-red)"/>
    <text x="40" y="177" font-family="'PingFang SC', sans-serif" font-size="20" font-weight="bold" fill="#FFFFFF">Fragmented Engineering Pipeline</text>
    <text x="40" y="210" font-family="system-ui, sans-serif" font-size="18" fill="#E2E8F0">Training, inference, Agent silos</text>
    <text x="40" y="235" font-family="system-ui, sans-serif" font-size="18" fill="#E2E8F0">High integration cost</text>
    
    <circle cx="20" cy="275" r="6" fill="#EF4444" filter="url(#glow-red)"/>
    <text x="40" y="282" font-family="'PingFang SC', sans-serif" font-size="20" font-weight="bold" fill="#FFFFFF">Lack of AI Infra Expertise</text>
    <text x="40" y="315" font-family="system-ui, sans-serif" font-size="18" fill="#E2E8F0">Most teams only call APIs</text>

    <rect x="0" y="410" width="280" height="320" rx="12" fill="url(#glass-panel)" stroke="#10B981" stroke-width="1.5" filter="url(#shadow)"/>
    <rect x="0" y="410" width="280" height="50" rx="12" fill="#064E3B"/>
    <rect x="0" y="450" width="280" height="10" fill="#064E3B"/>
    <text x="140" y="442" font-family="system-ui, sans-serif" font-size="20" font-weight="bold" fill="#4ADE80" text-anchor="middle" filter="url(#glow-green)">Solutions</text>
    
    <circle cx="20" cy="500" r="6" fill="#10B981"/>
    <text x="40" y="507" font-family="'PingFang SC', sans-serif" font-size="20" font-weight="bold" fill="#FFFFFF">Unified Full Pipeline</text>
    <text x="40" y="540" font-family="system-ui, sans-serif" font-size="18" fill="#E2E8F0">Data → Train → Distill</text>
    <text x="40" y="565" font-family="system-ui, sans-serif" font-size="18" fill="#E2E8F0">→ Infer → Agent</text>
    
    <circle cx="20" cy="605" r="6" fill="#10B981"/>
    <text x="40" y="612" font-family="'PingFang SC', sans-serif" font-size="20" font-weight="bold" fill="#FFFFFF">Complete AI Infra Provision</text>
    <text x="40" y="645" font-family="system-ui, sans-serif" font-size="18" fill="#E2E8F0">Build enterprise‑grade AI infrastructure</text>
  </g>

  <!-- 底部总结横幅 -->
  <rect x="200" y="850" width="1200" height="70" rx="35" fill="#1E293B" stroke="#06B6D4" stroke-width="2" filter="url(#shadow)"/>
  <rect x="200" y="850" width="1200" height="70" rx="35" fill="#06B6D4" opacity="0.1"/>
  <text x="800" y="892" font-family="'PingFang SC', 'Microsoft YaHei', system-ui, sans-serif" font-size="24" font-weight="bold" fill="#38BDF8" text-anchor="middle" letter-spacing="2" filter="url(#glow-cyan)">Goal: <tspan fill="#FFFFFF">↓80%+ inference cost</tspan>, <tspan fill="#FFFFFF">500 Tokens/s throughput</tspan>, <tspan fill="#FFFFFF">Data → Agent</tspan> unified pipeline</text>

  <!-- 装饰性科技节点 -->
  <circle cx="80" cy="850" r="4" fill="#3B82F6" filter="url(#glow-blue)"/>
  <circle cx="1520" cy="850" r="4" fill="#3B82F6" filter="url(#glow-blue)"/>
  <circle cx="800" cy="10" r="5" fill="#06B6D4" filter="url(#glow-cyan)"/>
</svg>